<?xml version="1.0" standalone="no"?>
<!DOCTYPE svg PUBLIC "-//W3C//DTD SVG 20010904//EN"
 "http://www.w3.org/TR/2001/REC-SVG-20010904/DTD/svg10.dtd">
<svg version="1.0" xmlns="http://www.w3.org/2000/svg"
 width="1024.000000pt" height="1024.000000pt" viewBox="0 0 1024.000000 1024.000000"
 preserveAspectRatio="xMidYMid meet">

<g transform="translate(0.000000,1024.000000) scale(0.100000,-0.100000)"
fill="#000000" stroke="none">
<path d="M936 9487 c-57 -18 -80 -32 -129 -81 -35 -34 -70 -82 -86 -115 -24
-52 -26 -66 -26 -191 0 -141 4 -160 61 -362 38 -138 120 -307 190 -397 27 -34
59 -76 72 -94 13 -18 50 -60 83 -95 32 -34 59 -65 59 -68 0 -3 64 -67 143
-143 78 -76 151 -148 162 -159 48 -49 192 -192 385 -382 333 -328 443 -437
655 -656 110 -113 283 -290 385 -393 102 -103 201 -205 221 -227 19 -21 57
-57 84 -79 27 -22 64 -54 83 -72 19 -17 62 -46 96 -64 34 -18 79 -44 101 -59
75 -51 266 -124 459 -176 50 -13 92 -24 94 -24 1 0 3 0 5 -1 51 -16 166 -26
251 -22 73 3 102 9 143 30 101 50 168 154 179 278 5 51 -10 185 -31 285 -3 14
-10 51 -16 84 -6 32 -19 81 -30 108 -10 27 -19 60 -19 73 0 13 -4 26 -9 29 -5
4 -12 25 -16 49 -7 40 -59 172 -77 191 -4 6 -8 16 -8 23 0 7 -27 50 -59 95
-63 88 -157 184 -256 263 -33 26 -89 76 -125 110 -268 260 -463 448 -570 551
-69 67 -147 143 -175 169 -27 26 -231 225 -451 443 -572 566 -684 672 -829
782 -32 25 -69 55 -82 68 -13 12 -52 36 -86 53 -34 18 -73 39 -87 49 -27 19
-254 95 -316 105 -22 4 -70 13 -109 20 -38 8 -110 16 -160 19 -75 4 -102 1
-159 -17z m304 -306 c193 -59 406 -133 445 -156 70 -40 599 -547 1185 -1135
269 -269 1074 -1057 1118 -1095 49 -41 75 -101 177 -409 113 -342 125 -391
103 -413 -15 -14 -22 -14 -86 1 -107 27 -649 216 -681 238 -42 30 -2305 2286
-2327 2320 -34 53 -164 528 -164 599 0 29 6 42 26 58 37 29 89 27 204 -8z"/>
<path d="M9050 9490 c-77 -7 -305 -56 -370 -80 -114 -40 -177 -70 -250 -118
-134 -88 -215 -156 -436 -367 -23 -22 -101 -96 -174 -165 -136 -128 -263 -251
-640 -623 -390 -383 -815 -793 -1015 -978 -226 -208 -289 -284 -354 -429 -18
-41 -37 -82 -41 -90 -3 -8 -21 -62 -39 -120 -18 -58 -36 -112 -41 -122 -8 -14
-25 -102 -46 -233 -11 -74 -11 -219 1 -270 19 -79 39 -117 86 -164 55 -55 130
-90 211 -99 58 -6 222 1 293 13 17 3 46 7 65 10 42 5 129 24 150 32 18 8 15 7
70 22 25 7 52 15 60 16 134 30 269 73 299 96 13 11 28 19 32 19 13 0 104 76
169 140 47 46 79 82 185 207 6 6 21 26 35 45 14 18 51 58 83 89 31 31 57 60
57 64 0 5 28 38 63 74 34 37 87 96 117 131 68 81 193 212 329 344 56 56 108
107 115 114 6 7 116 117 244 245 128 128 254 254 280 282 26 27 62 63 81 80
18 16 54 52 80 79 25 27 119 123 209 213 89 90 162 168 162 173 0 5 10 17 23
27 21 17 45 46 77 93 8 12 25 34 37 48 13 15 23 32 23 39 0 6 6 18 13 25 34
35 101 164 130 253 81 242 89 273 96 375 13 173 6 234 -37 320 -43 86 -100
136 -192 169 -70 26 -132 31 -240 21z m165 -306 c25 -23 27 -30 21 -71 -7 -53
-47 -194 -118 -417 l-50 -160 -1092 -1085 c-600 -597 -1122 -1118 -1161 -1158
-78 -81 -100 -92 -370 -190 -253 -93 -388 -135 -435 -136 -44 -2 -45 -1 -48
31 -4 38 53 221 162 528 l75 209 218 213 c120 118 436 431 703 696 665 660
1135 1120 1281 1251 144 131 160 140 395 221 253 87 271 92 340 93 42 1 56 -4
79 -25z"/>
<path d="M4110 4818 c-36 -4 -87 -9 -115 -12 -27 -3 -72 -10 -100 -16 -27 -5
-93 -16 -145 -25 -127 -21 -252 -52 -298 -73 -118 -53 -244 -163 -452 -391
-106 -117 -344 -363 -605 -626 -110 -111 -224 -228 -253 -259 -29 -31 -55 -56
-56 -56 -10 0 -1183 -1178 -1249 -1254 -93 -107 -142 -185 -171 -272 -12 -36
-25 -61 -29 -58 -4 4 -7 -2 -7 -13 0 -11 -9 -53 -19 -94 -25 -99 -29 -124 -36
-254 -3 -60 -8 -120 -11 -132 -10 -51 45 -249 81 -291 58 -68 135 -137 175
-156 87 -43 296 -65 389 -40 25 6 69 14 96 18 91 11 184 33 199 47 6 5 16 9
23 9 7 0 43 15 80 33 38 18 71 34 76 35 29 7 149 77 179 104 41 37 65 58 127
108 24 19 60 51 80 70 21 19 48 43 62 52 13 10 44 38 69 63 25 26 56 56 69 68
35 31 621 625 660 669 24 28 206 195 219 202 9 5 23 19 31 30 13 18 365 372
567 569 38 37 83 82 99 100 76 84 177 191 281 298 63 64 114 121 114 125 0 5
18 27 40 49 21 22 39 45 40 52 0 6 11 25 25 41 13 16 36 53 51 82 14 29 35 61
45 71 10 10 19 27 19 37 0 10 4 22 8 27 5 6 14 30 22 55 7 25 25 83 40 130 16
47 33 112 39 145 6 33 17 89 26 125 10 45 13 107 11 200 -4 162 -23 225 -95
300 -94 98 -209 129 -401 108z m170 -335 c0 -24 -28 -132 -50 -193 -5 -14 -46
-131 -91 -260 -45 -129 -90 -251 -99 -270 -10 -20 -42 -57 -72 -84 -59 -55
-793 -782 -1714 -1698 -590 -587 -614 -609 -685 -642 -151 -70 -487 -185 -586
-201 -36 -6 -46 -3 -67 18 -27 27 -27 52 -1 198 15 81 136 472 162 524 9 16
556 571 1217 1231 l1201 1202 170 55 c183 60 474 144 540 156 50 10 75 -2 75
-36z"/>
<path d="M5964 4805 c-243 -43 -347 -202 -314 -480 13 -105 73 -360 91 -382 6
-6 8 -17 4 -23 -3 -5 0 -22 8 -37 23 -42 79 -186 79 -203 1 -8 9 -27 19 -42
11 -14 19 -31 19 -36 0 -16 110 -152 122 -152 6 0 9 -3 6 -6 -3 -3 17 -26 46
-52 28 -26 81 -76 118 -111 37 -35 80 -74 94 -85 15 -12 37 -32 48 -45 12 -13
32 -34 45 -45 13 -12 45 -43 70 -69 25 -27 64 -65 86 -85 22 -20 81 -76 130
-124 50 -47 130 -124 179 -170 136 -128 176 -167 176 -173 0 -3 46 -49 102
-103 56 -53 138 -133 183 -177 44 -44 152 -147 239 -230 87 -82 206 -199 265
-260 58 -60 144 -146 191 -190 46 -44 159 -154 250 -246 91 -91 188 -180 215
-199 28 -18 52 -36 55 -40 19 -22 261 -150 284 -150 9 0 16 -4 16 -8 0 -9 53
-32 87 -39 12 -2 47 -12 78 -21 31 -10 71 -18 88 -17 18 0 35 -3 38 -8 6 -8
166 -11 209 -3 14 3 42 7 63 10 100 15 213 97 269 194 18 31 31 57 28 57 -2 0
2 11 9 23 14 27 20 52 29 137 8 68 -10 276 -27 319 -6 16 -23 77 -37 135 -27
110 -51 168 -119 284 -22 37 -48 81 -57 98 -19 36 -492 514 -814 824 -322 310
-1194 1182 -1194 1194 0 6 -4 11 -9 11 -5 0 -56 48 -113 106 -309 317 -386
391 -446 427 -35 20 -68 37 -72 37 -5 0 -33 11 -62 24 -66 30 -110 49 -123 52
-128 32 -274 63 -330 69 -5 1 -28 4 -50 8 -78 14 -201 14 -271 2z m136 -296
c25 -6 50 -12 55 -13 104 -25 547 -174 578 -195 15 -10 105 -94 200 -186 264
-257 2156 -2145 2197 -2191 37 -42 72 -129 139 -349 62 -202 87 -374 61 -415
-30 -48 -248 8 -595 153 l-120 50 -680 676 c-777 773 -1417 1408 -1490 1478
-28 26 -94 89 -146 138 -111 105 -101 83 -249 527 -84 253 -100 315 -83 331
10 10 82 8 133 -4z"/>
</g>
</svg>
